<svg width="620" height="935" viewBox="0 0 620 935" fill="none" xmlns="http://www.w3.org/2000/svg">
<path d="M283.661 1.06961C102.866 11.9797 7.7929 114.846 0 300.317H182.354C183.912 236.415 221.318 188.099 286.779 180.306C352.239 174.072 414.582 189.658 433.285 233.298C453.547 281.614 408.348 337.723 386.528 361.102C346.005 404.742 280.544 437.472 246.256 484.229C213.525 530.987 207.291 591.771 204.174 666.583H364.708C366.266 618.267 369.383 573.068 391.203 543.455C427.051 495.139 480.042 473.319 523.683 434.355C565.764 398.507 610.963 354.867 617.197 286.29C643.693 85.2329 478.484 -11.399 283.661 1.06961Z" fill="#131316" fill-opacity="0.03"/>
<path d="M288.337 934.658C344.288 934.658 389.645 889.999 389.645 834.909C389.645 779.819 344.288 735.16 288.337 735.16C232.386 735.16 187.029 779.819 187.029 834.909C187.029 889.999 232.386 934.658 288.337 934.658Z" fill="#131316" fill-opacity="0.03"/>
</svg>
