<svg width="15" height="6" viewBox="0 0 15 6" fill="none" xmlns="http://www.w3.org/2000/svg">
<path d="M3.64746 4.15625C3.11035 4.15625 2.53418 4.32227 1.91895 4.6543C1.31348 4.97656 0.74707 5.40137 0.219727 5.92871V2.54492C1.22559 1.48047 2.47559 0.948242 3.96973 0.948242C4.68262 0.948242 5.35156 1.02637 5.97656 1.18262C6.61133 1.33887 7.29492 1.57324 8.02734 1.88574C9.28711 2.42285 10.3955 2.69141 11.3525 2.69141C11.8701 2.69141 12.4365 2.53516 13.0518 2.22266C13.667 1.91016 14.2383 1.47559 14.7656 0.918945V4.30273C13.7793 5.36719 12.5293 5.89941 11.0156 5.89941C10.3711 5.89941 9.75586 5.83594 9.16992 5.70898C8.58398 5.58203 7.85156 5.33789 6.97266 4.97656C5.69336 4.42969 4.58496 4.15625 3.64746 4.15625Z" fill="#4AE290"/>
</svg>
